# xmcd
#
# Track frame offsets: 
#        150
#        20467
#        36232
#        53499
#        68214
#        88384
#        114361
#        137113
#        154244
#        173798
#        198180
#        216916
#        225989
#        245158
#        265098
#        278756
#
# Disc length: 3945 seconds
#
# Revision: 0
# Processed by: cddbd v1.5.2PL0 Copyright (c) Steve Scherf et al.
# Submitted via: ExactAudioCopy v0.99pb4
#
DISCID=e00f6710
DTITLE=Alicia Keys - Songs In A Minor
DYEAR=2001
DGENRE=R&B
TTITLE0=Piano and I
TTITLE1=Girlfriend
TTITLE2=How Come You Don't Call Me
TTITLE3=Fallin
TTITLE4=Troubles
TTITLE5=Rock With You
TTITLE6=A Woman's Worth
TTITLE7=Jane Doe
TTITLE8=Goodbye
TTITLE9=The Life
TTITLE10=Mr. Man (Duett With Jimmy Cozier)
TTITLE11=Never Felt This Way
TTITLE12=Butterflies
TTITLE13=Why Do I Feel So Sad
TTITLE14=Caged Bird
TTITLE15=Lovin You (Bonus Track)
EXTD=
EXTT0=
EXTT1=
EXTT2=
EXTT3=
EXTT4=
EXTT5=
EXTT6=
EXTT7=
EXTT8=
EXTT9=
EXTT10=
EXTT11=
EXTT12=
EXTT13=
EXTT14=
EXTT15=
PLAYORDER=
